<?xml version="1.0"?>
<svg xmlns="http://www.w3.org/2000/svg" height="512px" viewBox="0 -46 512 512" width="512px" class=""><g><path d="m301.039062 90.074219h150.96875v30.003906h-150.96875zm0 0" data-original="#000000" class="active-path" data-old_color="#ffffff" fill="#ffffff"/><path d="m301.039062 150.125h150.96875v30.003906h-150.96875zm0 0" data-original="#000000" class="active-path" data-old_color="#ffffff" fill="#ffffff"/><path d="m301.039062 210.175781h150.96875v30.003907h-150.96875zm0 0" data-original="#000000" class="active-path" data-old_color="#ffffff" fill="#ffffff"/><path d="m301.039062 270.226562h150.96875v30.003907h-150.96875zm0 0" data-original="#000000" class="active-path" data-old_color="#ffffff" fill="#ffffff"/><path d="m294.898438 30.023438c-15.269532 0-29.082032 6.386718-38.898438 16.628906-9.816406-10.242188-23.625-16.628906-38.898438-16.628906h-31.570312v-30.023438h-100.058594v30.023438h-85.472656v390.308593h512v-390.308593zm0 30.003906h187.101562v270.25h-187.101562c-8.578126 0-16.691407 2.027344-23.898438 5.609375v-251.960938c0-13.175781 10.722656-23.898437 23.898438-23.898437zm-179.425782-30.027344h40.058594v98.933594l-20.03125-11.398438-20.027344 11.398438zm-30 30.027344v120.496094l50.027344-28.46875 50.03125 28.46875v-120.496094h31.566406c13.179688 0 23.898438 10.71875 23.898438 23.894531v251.964844c-7.207032-3.582031-15.316406-5.609375-23.898438-5.609375h-187.097656v-270.25zm-55.472656 300.253906h187.101562c13.175782 0 23.898438 10.71875 23.898438 23.898438v6.148437h-211zm241 30.050781v-6.152343c0-13.179688 10.722656-23.898438 23.898438-23.898438h187.097656v30.050781zm0 0" data-original="#000000" class="active-path" data-old_color="#ffffff" fill="#ffffff"/></g> </svg>
